HIERARCHY
ROOT Hips
{
 OFFSET 0.000000 0.000000 0.000000
 CHANNELS 6 Xposition Yposition Zposition Yrotation Xrotation Zrotation
 JOINT Chest
 {
  OFFSET 0.000000 9.581000 -0.001100
  CHANNELS 3 Yrotation Xrotation Zrotation
  JOINT Chest2
  {
   OFFSET 0.000000 9.561100 0.002200
   CHANNELS 3 Yrotation Xrotation Zrotation
   JOINT Chest3
   {
    OFFSET 0.000000 9.521100 0.000000
    CHANNELS 3 Yrotation Xrotation Zrotation
    JOINT Chest4
    {
     OFFSET 0.000000 9.511400 0.000000
     CHANNELS 3 Yrotation Xrotation Zrotation
     JOINT Neck
     {
      OFFSET 0.000000 14.375100 0.000000
      CHANNELS 3 Yrotation Xrotation Zrotation
      JOINT Head
      {
       OFFSET 0.000000 8.901200 0.004600
       CHANNELS 3 Yrotation Xrotation Zrotation
       End Site
       {
        OFFSET 0.000000 16.962200 0.002400
       }
      }
     }
     JOINT RightCollar
     {
      OFFSET -2.920100 9.518800 0.000000
      CHANNELS 3 Yrotation Xrotation Zrotation
      JOINT RightShoulder
      {
       OFFSET -13.664500 0.000000 0.000000
       CHANNELS 3 Yrotation Xrotation Zrotation
       JOINT RightElbow
       {
        OFFSET 0.000000 -29.999200 0.000000
        CHANNELS 3 Yrotation Xrotation Zrotation
        JOINT RightWrist
        {
         OFFSET 0.000000 -24.253600 0.000000
         CHANNELS 3 Yrotation Xrotation Zrotation
         End Site
         {
          OFFSET 0.000000 -17.918900 0.000000
         }
        }
       }
      }
     }
     JOINT LeftCollar
     {
      OFFSET 2.920100 9.518800 0.000000
      CHANNELS 3 Yrotation Xrotation Zrotation
      JOINT LeftShoulder
      {
       OFFSET 13.664500 0.000000 0.000000
       CHANNELS 3 Yrotation Xrotation Zrotation
       JOINT LeftElbow
       {
        OFFSET 0.000000 -29.999200 0.000000
        CHANNELS 3 Yrotation Xrotation Zrotation
        JOINT LeftWrist
        {
         OFFSET 0.000000 -24.253600 0.000000
         CHANNELS 3 Yrotation Xrotation Zrotation
         End Site
         {
          OFFSET 0.000000 -17.918900 0.000000
         }
        }
       }
      }
     }
    }
   }
  }
 }
 JOINT RightHip
 {
  OFFSET -7.797300 0.005300 0.000500
  CHANNELS 3 Yrotation Xrotation Zrotation
  JOINT RightKnee
  {
   OFFSET 0.000000 -40.663400 -0.000500
   CHANNELS 3 Yrotation Xrotation Zrotation
   JOINT RightAnkle
   {
    OFFSET 0.000000 -39.523700 -0.000900
    CHANNELS 3 Yrotation Xrotation Zrotation
    JOINT RightToe
    {
     OFFSET 0.000000 -6.418000 14.485300
     CHANNELS 3 Yrotation Xrotation Zrotation
     End Site
     {
      OFFSET 0.000000 -1.465200 6.326400
     }
    }
   }
  }
 }
 JOINT LeftHip
 {
  OFFSET 7.797300 0.005300 0.000500
  CHANNELS 3 Yrotation Xrotation Zrotation
  JOINT LeftKnee
  {
   OFFSET 0.000000 -40.663400 -0.000500
   CHANNELS 3 Yrotation Xrotation Zrotation
   JOINT LeftAnkle
   {
    OFFSET 0.000000 -39.523700 -0.000900
    CHANNELS 3 Yrotation Xrotation Zrotation
    JOINT LeftToe
    {
     OFFSET 0.000000 -6.418000 14.485300
     CHANNELS 3 Yrotation Xrotation Zrotation
     End Site
     {
      OFFSET 0.000000 -1.465200 6.326400
     }
    }
   }
  }
 }
}
MOTION
Frames: 15
Frame Time: 0.008333
0.000000 86.422400 0.000000 0.000000 -5.767877 0.000000 0.000000 11.653817 0.000000 0.000000 -5.885947 0.000000 0.000000 -0.000000 0.000000 0.000000 -0.000000 0.000000 0.000000 12.528835 0.000000 0.000000 0.711642 0.000000 0.000000 -0.000000 0.000000 0.000000 0.000000 -90.000000 0.000000 -2.309062 0.000000 0.000000 2.309062 0.000000 0.000000 -0.000000 0.000000 0.000000 -0.000000 90.000000 0.000000 -2.309062 0.000000 0.000000 2.309062 0.000000 0.000000 8.520406 0.000000 0.000000 1.905762 0.000000 -0.000000 -4.658285 0.000000 0.000000 -0.000000 0.000000 0.000000 8.520406 0.000000 0.000000 1.905762 0.000000 -0.000000 -4.658285 0.000000 0.000000 -0.000000 0.000000
-22.610652 126.404935 61.668188 179.209479 -27.875683 -3.290931 -0.642751 19.427161 0.841938 -0.091208 2.335013 0.112519 -0.147947 3.844645 0.183607 -0.564043 16.845369 0.757983 4.553405 21.061247 -0.822003 5.093312 -3.195929 -1.933997 -4.142302 -0.316803 0.202865 -28.265633 -12.085240 -2.817995 -112.857033 -16.757349 98.242043 -35.838143 -17.509552 -11.765474 -3.709526 0.413555 2.031212 27.330099 -13.449625 2.977859 88.153636 -30.851971 -87.201692 26.135325 -26.937236 17.382980 -9.064038 -50.460087 5.389582 -162.126872 74.423125 -155.886937 9.941559 -22.821067 -8.649824 -0.003569 -0.003598 -0.001581 -11.351142 -53.741209 -2.472497 31.598935 62.796293 23.588879 -3.379246 40.776908 -0.479290 -0.007952 -0.003598 -0.003523
-22.610430 126.404856 61.667545 179.209346 -27.873245 -3.286499 -0.639331 19.478255 0.860197 -0.094335 2.315463 0.104484 -0.148531 3.855964 0.184632 -0.568648 16.816395 0.748270 4.580112 21.234852 -0.727036 5.095225 -3.047043 -1.850364 -4.152731 -0.265772 0.201282 -28.178847 -11.891612 -2.760445 -112.884837 -16.836771 98.281628 -35.808104 -17.438642 -11.747618 -3.694238 0.482733 2.030755 27.201881 -13.337174 2.897330 88.138385 -30.887825 -87.178815 26.190462 -26.926460 17.294593 -9.062031 -50.463396 5.390297 -162.107465 74.422033 -155.868345 9.942138 -22.819459 -8.653844 -0.003944 -0.004108 -0.001747 -11.323476 -53.735570 -2.479276 31.580062 62.793082 23.570372 -3.389344 40.771310 -0.481219 -0.002380 -0.003594 -0.001054
-22.610004 126.404705 61.666717 179.208386 -27.868650 -3.282432 -0.638835 19.501481 0.864116 -0.091472 2.344812 0.113005 -0.148956 3.883869 0.188062 -0.569564 16.790575 0.744795 4.583911 21.350725 -0.663770 5.091650 -2.915334 -1.781572 -4.186730 -0.169538 0.189786 -28.097166 -11.781136 -2.658770 -112.892540 -16.885218 98.310972 -35.789171 -17.390435 -11.737752 -3.669262 0.557926 2.021568 27.070254 -13.283233 2.799119 88.115478 -30.882782 -87.152896 26.248973 -26.933194 17.233013 -9.075635 -50.467595 5.414519 -162.068537 74.421555 -155.845434 9.932772 -22.820086 -8.649118 -0.002411 -0.004087 -0.001068 -11.311766 -53.737265 -2.482822 31.584587 62.790479 23.573412 -3.390953 40.768997 -0.481589 -0.002911 -0.004169 -0.001290
-22.609926 126.404880 61.664841 179.205588 -27.867149 -3.275274 -0.638633 19.522225 0.862543 -0.091057 2.330641 0.110323 -0.149672 3.909179 0.191373 -0.568449 16.879868 0.757389 4.568953 21.396460 -0.650451 5.078158 -2.793072 -1.748960 -4.219748 -0.148282 0.173510 -28.017050 -11.667861 -2.559516 -112.883831 -16.905810 98.329067 -35.783944 -17.360524 -11.725646 -3.646908 0.538454 2.009008 26.950776 -13.213363 2.724281 88.087271 -30.856651 -87.119356 26.296876 -26.951804 17.200180 -9.079309 -50.468910 5.419928 -162.046147 74.418969 -155.828395 9.934467 -22.821746 -8.652214 -0.001746 -0.005173 -0.000774 -11.310320 -53.723335 -2.478476 31.576089 62.776747 23.556748 -3.398179 40.765109 -0.491304 0.000075 0.001040 0.000033
-22.609963 126.404932 61.662774 179.204000 -27.862659 -3.268238 -0.639882 19.525444 0.857297 -0.091990 2.359689 0.114786 -0.152456 3.920166 0.192911 -0.570495 16.895498 0.757570 4.538714 21.498421 -0.662282 5.049508 -2.675543 -1.754901 -4.252254 -0.105996 0.163918 -27.934545 -11.533100 -2.481765 -112.869304 -16.898460 98.338723 -35.781525 -17.341618 -11.708997 -3.638231 0.499938 2.003428 26.848762 -13.081115 2.693233 88.052757 -30.827678 -87.076561 26.327655 -26.980175 17.195651 -9.087278 -50.472411 5.427071 -162.011451 74.415645 -155.802848 9.942612 -22.823807 -8.654408 -0.001450 -0.005588 -0.000642 -11.332553 -53.719314 -2.464638 31.598551 62.762681 23.563079 -3.404939 40.766379 -0.496906 -0.001078 0.002596 -0.000478
-22.610182 126.404187 61.661814 179.201127 -27.846609 -3.260118 -0.643435 19.544634 0.855773 -0.092487 2.364465 0.114812 -0.154235 3.941972 0.196734 -0.570853 16.866043 0.751746 4.490855 21.626487 -0.685745 5.003929 -2.567350 -1.778429 -4.296216 -0.037379 0.160963 -27.848983 -11.411345 -2.412339 -112.853670 -16.867950 98.338063 -35.776082 -17.323757 -11.689365 -3.612258 0.636159 2.008317 26.759762 -13.083606 2.602976 88.009653 -30.806941 -87.021670 26.339920 -27.015507 17.216426 -9.097526 -50.487664 5.437486 -161.981312 74.413371 -155.782827 9.948177 -22.826361 -8.655968 -0.001026 -0.004707 -0.000454 -11.364769 -53.732137 -2.440269 31.625232 62.755871 23.568818 -3.409866 40.768274 -0.501164 -0.001771 0.003016 -0.000785
-22.610079 126.403923 61.659585 179.195898 -27.835608 -3.253342 -0.646318 19.604712 0.864312 -0.092477 2.334448 0.109386 -0.150847 3.926191 0.191737 -0.572948 16.875077 0.753581 4.436260 21.738545 -0.708685 4.947306 -2.473978 -1.795439 -4.341894 0.025844 0.159731 -27.770296 -11.305911 -2.347479 -112.839467 -16.828398 98.326225 -35.767426 -17.297951 -11.671089 -3.593409 0.722422 2.020439 26.681807 -13.049127 2.545856 87.958089 -30.801295 -86.954484 26.337423 -27.060295 17.264352 -9.108076 -50.498197 5.450396 -161.961648 74.410946 -155.773483 9.949729 -22.828861 -8.656526 -0.001163 -0.005078 -0.000515 -11.378996 -53.742925 -2.426705 31.639424 62.756643 23.572146 -3.409235 40.771684 -0.504914 -0.002259 0.002133 -0.001001
-22.609940 126.403289 61.657684 179.192535 -27.819048 -3.248284 -0.645460 19.622535 0.866469 -0.092975 2.342195 0.110830 -0.150744 3.909420 0.188474 -0.570622 16.955619 0.766624 4.372648 21.759528 -0.736450 4.887757 -2.393750 -1.799971 -4.366645 -0.032948 0.153734 -27.720084 -11.170925 -2.302750 -112.829282 -16.794610 98.308519 -35.756621 -17.264303 -11.659749 -3.589079 0.705203 2.034643 26.618872 -12.992053 2.512947 87.897724 -30.813935 -86.880343 26.327591 -27.116589 17.339984 -9.124652 -50.514635 5.465767 -161.935122 74.408132 -155.756602 9.955683 -22.828524 -8.660624 0.000173 -0.005774 0.000077 -11.397920 -53.760363 -2.409030 31.651654 62.758749 23.572528 -3.411029 40.774342 -0.508601 -0.003288 -0.000389 -0.001457
-22.609428 126.402341 61.656077 179.191578 -27.797740 -3.247020 -0.646379 19.632622 0.871071 -0.093624 2.382079 0.117009 -0.150757 3.910751 0.189678 -0.572414 16.932628 0.765330 4.314128 21.820098 -0.745417 4.828758 -2.320911 -1.796582 -4.414670 0.021521 0.147024 -27.655731 -11.096489 -2.227990 -112.827279 -16.773469 98.287753 -35.746147 -17.227572 -11.655845 -3.587947 0.735355 2.053359 26.565256 -12.930888 2.493465 87.830423 -30.837935 -86.806751 26.314280 -27.175016 17.437950 -9.138422 -50.535357 5.479111 -161.931355 74.404363 -155.759509 9.958083 -22.831708 -8.661431 -0.000508 -0.005779 -0.000225 -11.436896 -53.784886 -2.373300 31.660973 62.768460 23.559979 -3.398760 40.774918 -0.499116 -0.004414 -0.003349 -0.001956
-22.609069 126.401240 61.654314 179.191916 -27.775081 -3.245476 -0.648864 19.624662 0.871815 -0.093893 2.383218 0.117328 -0.150441 3.904548 0.189285 -0.573011 16.934318 0.766330 4.259025 21.908876 -0.738994 4.772489 -2.250609 -1.786886 -4.456463 0.098368 0.144708 -27.601774 -11.015998 -2.160340 -112.832384 -16.764012 98.264686 -35.735802 -17.192680 -11.657549 -3.591471 0.794166 2.074762 26.512674 -12.865383 2.490355 87.767260 -30.861875 -86.741520 26.296705 -27.228589 17.554405 -9.153144 -50.557569 5.492887 -161.932996 74.400561 -155.767750 9.947212 -22.839012 -8.658962 -0.002699 -0.006295 -0.001196 -11.466262 -53.812054 -2.344627 31.651409 62.792682 23.537103 -3.386215 40.753761 -0.493404 -0.004091 -0.004051 -0.001812
-22.607776 126.399198 61.654099 179.193982 -27.740092 -3.250143 -0.651879 19.603049 0.876957 -0.094194 2.384306 0.117665 -0.152311 3.922004 0.191687 -0.576027 16.940502 0.770468 4.205760 21.965158 -0.738732 4.722637 -2.183720 -1.771566 -4.480310 0.121149 0.141396 -27.564161 -10.920706 -2.110230 -112.837447 -16.762244 98.240371 -35.724035 -17.167835 -11.664085 -3.590142 0.788555 2.079054 26.442843 -12.779378 2.522550 87.716981 -30.879724 -86.687478 26.281026 -27.278029 17.683414 -9.186618 -50.590177 5.523517 -161.922892 74.396818 -155.768651 9.948259 -22.842665 -8.663532 -0.002589 -0.005056 -0.001147 -11.500024 -53.848217 -2.305011 31.634496 62.816949 23.511658 -3.381642 40.734136 -0.496498 -0.000575 -0.000807 -0.000255
-22.607476 126.397980 61.651771 179.195355 -27.717202 -3.247736 -0.664611 19.627086 0.874697 -0.091164 2.364602 0.116389 -0.161649 3.956304 0.192538 -0.573806 16.911209 0.768310 4.166162 22.020951 -0.731205 4.681801 -2.126543 -1.752724 -4.494351 0.149154 0.144583 -27.531940 -10.835680 -2.068200 -112.842047 -16.765692 98.213852 -35.713087 -17.157684 -11.677112 -3.591006 0.826809 2.097976 26.384751 -12.734233 2.529880 87.676470 -30.885659 -86.641014 26.274635 -27.322344 17.814338 -9.210448 -50.614259 5.542528 -161.906562 74.389841 -155.764575 9.948849 -22.843960 -8.665141 -0.000492 -0.006787 -0.000218 -11.508289 -53.871083 -2.296647 31.625050 62.826225 23.501088 -3.378554 40.728961 -0.498094 0.000282 -0.002313 0.000125
-22.607421 126.396440 61.649651 179.195003 -27.690880 -3.242405 -0.674459 19.639286 0.871239 -0.090335 2.353821 0.113132 -0.163732 3.966471 0.194776 -0.583559 16.909986 0.762037 4.142655 22.065083 -0.716730 4.650305 -2.085475 -1.733894 -4.489679 0.142922 0.149344 -27.514176 -10.735243 -2.042603 -112.849313 -16.771915 98.183287 -35.705013 -17.160017 -11.703354 -3.584829 0.855286 2.117413 26.327732 -12.700469 2.543675 87.637719 -30.872184 -86.602003 26.275816 -27.360967 17.942018 -9.216542 -50.641773 5.545917 -161.904766 74.386030 -155.766087 9.946976 -22.846184 -8.664806 -0.000241 -0.007257 -0.000107 -11.513726 -53.894857 -2.288083 31.608554 62.833923 23.482232 -3.378821 40.720252 -0.502112 0.002652 -0.004269 0.001175
-22.607093 126.395197 61.646693 179.185747 -27.668600 -3.234086 -0.674062 19.643811 0.870049 -0.100378 2.403463 0.119002 -0.158635 3.934840 0.190500 -0.590022 16.907921 0.753417 4.127240 22.093527 -0.699479 4.627925 -2.064685 -1.719629 -4.486228 0.130115 0.155561 -27.499627 -10.650483 -2.024342 -112.858734 -16.775381 98.148546 -35.697161 -17.176983 -11.752064 -3.578881 0.861198 2.131455 26.275592 -12.669092 2.571007 87.593861 -30.836697 -86.571321 26.280924 -27.395698 18.059449 -9.211207 -50.665041 5.547515 -161.907930 74.381881 -155.772943 9.944789 -22.851363 -8.661464 -0.001859 -0.007042 -0.000823 -11.509144 -53.917520 -2.285164 31.584459 62.865849 23.463588 -3.363497 40.681818 -0.507695 0.003242 0.002996 0.001436
